<svg width="162" height="140" viewBox="0 0 162 140" fill="none" xmlns="http://www.w3.org/2000/svg">
<path d="M0.0071294 35.0093C0.106256 36.6834 1.21317 38.0923 2.81572 38.573L32.4876 47.5735L33.578 68.0938C33.6276 68.906 34.1728 69.6188 34.9493 69.884C35.1641 69.9668 35.3954 70 35.6101 70C36.1884 70 36.7336 69.7679 37.1301 69.3204L47.621 57.6679L62.49 67.9944C63.1508 68.4585 63.9273 68.7071 64.7369 68.7071C66.6037 68.7071 68.2228 67.3811 68.6193 65.5246L80.9606 2.42203C81.1093 1.69272 80.8284 0.930248 80.2667 0.466136C79.6885 -0.014551 78.912 -0.130579 78.2181 0.151203L2.38617 31.1141C0.849706 31.8102 -0.0919973 33.3352 0.0071294 35.0093ZM37.3448 63.0052L36.6675 50.0598L44.2672 55.3308L37.3448 63.0052ZM64.6708 64.5798L37.6092 45.7833L75.5582 8.95275L64.6708 64.5798ZM71.3949 7.32836L33.8754 43.7445L4.23653 34.7607L71.3949 7.32836Z" transform="scale(2)" fill="#5D068C"/>
</svg>
