<svg width="102" height="98" viewBox="0 0 102 98" fill="none" xmlns="http://www.w3.org/2000/svg">
<path d="M25.5032 -3.64528e-08L0 18.9168V49H51V18.9168L25.5032 -3.64528e-08ZM18.4479 13.4986C19.1962 12.1398 20.2273 11.1167 21.5353 10.4376C22.8402 9.75273 24.3291 9.40808 26.013 9.40808C27.4326 9.40808 28.7003 9.6852 29.8096 10.2312C30.9183 10.7854 31.7621 11.5652 32.3533 12.58C32.9304 13.5961 33.2299 14.7039 33.2299 15.9035C33.2299 17.335 32.7849 18.6295 31.8949 19.7877C30.7792 21.2478 29.355 21.9766 27.6115 21.9766C27.1422 21.9766 26.7914 21.8989 26.551 21.7345C26.3169 21.5676 26.1528 21.3319 26.0745 21.0153C25.4192 21.66 24.644 21.9836 23.7732 21.9836C22.8338 21.9836 22.0554 21.6606 21.4372 21.0223C20.8178 20.3776 20.5094 19.5182 20.5094 18.4543C20.5094 17.1267 20.88 15.9277 21.627 14.8409C22.535 13.5133 23.6905 12.8469 25.105 12.8469C26.1124 12.8469 26.8562 13.2298 27.3332 13.9968L27.5455 13.0616H29.7898L28.5086 19.1003C28.4284 19.4863 28.3887 19.7284 28.3887 19.8412C28.3887 19.9864 28.422 20.0833 28.4842 20.1578C28.5477 20.2285 28.6272 20.2629 28.7131 20.2629C28.9927 20.2629 29.3409 20.1049 29.7686 19.773C30.3463 19.3507 30.8119 18.7703 31.1671 18.0562C31.5223 17.3369 31.7051 16.5916 31.7051 15.8214C31.7051 14.4421 31.2036 13.2878 30.1969 12.3526C29.1883 11.4288 27.7795 10.9606 25.979 10.9606C24.4446 10.9606 23.1467 11.2708 22.0823 11.8958C21.0179 12.5112 20.2144 13.3884 19.6681 14.5167C19.1301 15.6379 18.8615 16.8145 18.8615 18.0332C18.8615 19.2156 19.1686 20.2961 19.7662 21.2657C20.3722 22.2423 21.2154 22.9481 22.3029 23.3966C23.3904 23.8406 24.6388 24.063 26.0399 24.063C27.3845 24.063 28.5464 23.8763 29.523 23.5017C30.4989 23.1278 31.2793 22.5735 31.8737 21.8193H33.6736C33.1093 22.9609 32.2456 23.8527 31.0773 24.5045C29.7359 25.2454 28.1021 25.6129 26.1758 25.6129C24.3048 25.6129 22.6966 25.3027 21.3398 24.6777C19.9797 24.0496 18.9743 23.1271 18.3068 21.9065C17.6476 20.6847 17.3225 19.3532 17.3225 17.9135C17.3238 16.3355 17.6944 14.8626 18.4479 13.4986ZM1.79798 19.5137L20.6139 32.0511L1.79798 46.5199V19.5137ZM3.22726 47.4825L25.5032 30.3552L47.7721 47.4825H3.22726ZM49.2001 46.5199L30.388 32.0511L49.2007 19.5137V46.5199H49.2001ZM26.4214 14.876C26.7202 15.2142 26.8696 15.7009 26.8696 16.3361C26.8696 16.9037 26.7581 17.5185 26.5407 18.1702C26.3265 18.8302 26.0643 19.3335 25.7655 19.6743C25.5616 19.9132 25.3435 20.0896 25.1294 20.2005C24.8479 20.3591 24.5484 20.4362 24.2253 20.4362C23.7931 20.44 23.4366 20.268 23.141 19.9304C22.8524 19.5921 22.7094 19.0729 22.7094 18.36C22.7094 17.8255 22.8107 17.2101 23.0217 16.5196C23.2326 15.8264 23.5411 15.299 23.9534 14.9212C24.3682 14.5466 24.8165 14.3599 25.2999 14.3599C25.7526 14.3631 26.129 14.5345 26.4214 14.876Z" transform="scale(2)" fill="#B3B3B3" fill-opacity="0.86"/>
</svg>
