<?xml version="1.0" encoding="iso-8859-1"?>
<!-- Generator: Adobe Illustrator 19.0.0, SVG Export Plug-In . SVG Version: 6.00 Build 0)  -->
<svg version="1.1" id="Capa_1" xmlns="http://www.w3.org/2000/svg" xmlns:xlink="http://www.w3.org/1999/xlink" x="0px" y="0px"
	 viewBox="0 0 512.001 512.001" style="enable-background:new 0 0 512.001 512.001;" xml:space="preserve">
<g>
	<g>
		<path d="M382.196,152.786c6.181-9.432,9.79-20.694,9.79-32.788c0-33.083-26.915-59.999-59.999-59.999
			s-59.999,26.915-59.999,59.999c0,12.095,3.609,23.357,9.79,32.788c-31.565,8.847-54.789,37.858-54.789,72.21v29.999
			c0,8.284,6.716,15,15,15h179.996c8.284,0,15-6.716,15-15v-29.999C436.985,190.644,413.761,161.633,382.196,152.786z
			 M331.987,89.998c16.542,0,29.999,13.458,29.999,29.999c0,16.542-13.458,29.999-29.999,29.999s-29.999-13.458-29.999-29.999
			C301.987,103.456,315.445,89.998,331.987,89.998z M406.985,239.995H256.988v-15c0-24.813,20.187-44.999,44.999-44.999h59.999
			c24.813,0,44.999,20.187,44.999,44.999V239.995z"/>
	</g>
</g>
<g>
	<g>
		<path d="M331.987,0C232.737,0,151.99,80.746,151.99,179.996c0,33.336,9.121,64.579,24.982,91.381L13.176,435.174
			c-17.544,17.544-17.544,46.09,0,63.634c17.589,17.59,46.043,17.592,63.634,0c8.549-8.549,154.769-154.769,163.796-163.796
			c26.802,15.86,58.045,24.98,91.381,24.98c99.25,0,179.997-80.746,179.997-179.997S431.238,0,331.987,0z M55.597,477.595
			c-5.866,5.865-15.342,5.866-21.209,0c-5.847-5.847-5.847-15.362,0-21.209L145.78,344.994l21.209,21.209L55.597,477.595z
			 M188.2,344.991l-21.209-21.209l27.621-27.621c6.472,7.642,13.567,14.737,21.209,21.209L188.2,344.991z M331.987,329.994
			c-82.708,0-149.997-67.289-149.997-149.997S249.278,29.999,331.987,29.999s149.997,67.289,149.997,149.997
			S414.696,329.994,331.987,329.994z"/>
	</g>
</g>
<g>
</g>
<g>
</g>
<g>
</g>
<g>
</g>
<g>
</g>
<g>
</g>
<g>
</g>
<g>
</g>
<g>
</g>
<g>
</g>
<g>
</g>
<g>
</g>
<g>
</g>
<g>
</g>
<g>
</g>
</svg>
