<svg width="60" height="49" viewBox="0 0 60 49" fill="none" xmlns="http://www.w3.org/2000/svg">
<path d="M11.285 28.6192C11.469 28.7652 11.689 28.8372 11.908 28.8372C12.202 28.8372 12.493 28.7082 12.691 28.4602C13.035 28.0282 12.964 27.3992 12.532 27.0552C11.731 26.4172 10.955 25.7242 10.227 24.9952L2.829 17.5972L10.458 9.96817C17.792 2.63517 28.461 0.132165 38.297 3.43416C38.82 3.60716 39.387 3.32716 39.564 2.80416C39.739 2.28116 39.458 1.71316 38.934 1.53716C28.372 -2.00784 16.918 0.680164 9.044 8.55316L0 17.5972L8.812 26.4092C9.593 27.1912 10.426 27.9342 11.285 28.6192Z" transform="translate(0 7.49709)" fill="#807F7F" fill-opacity="0.95"/>
<path d="M31.3358 3.7853C29.9878 2.4373 28.5098 1.2213 26.9418 0.1693C26.4838 -0.1377 25.8608 -0.0156994 25.5538 0.442301C25.2458 0.900301 25.3688 1.5223 25.8268 1.8303C27.2868 2.8093 28.6648 3.9433 29.9208 5.1993L37.3188 12.5973L29.6898 20.2263C22.3048 27.6113 11.1768 30.1083 1.33778 26.5823C0.817782 26.3953 0.244781 26.6663 0.0587812 27.1863C-0.127219 27.7063 0.142781 28.2783 0.662781 28.4653C3.84478 29.6053 7.15278 30.1583 10.4388 30.1583C18.0598 30.1583 25.5628 27.1813 31.1038 21.6403L40.1468 12.5973L31.3358 3.7853Z" transform="translate(18.9011 12.2659)" fill="#807F7F" fill-opacity="0.95"/>
<path d="M7.59813 19.4459C5.44513 19.4459 3.34713 18.8479 1.52813 17.7159C1.06113 17.4259 0.444128 17.5679 0.151128 18.0369C-0.140872 18.5059 0.00312951 19.1219 0.47213 19.4139C2.60713 20.7439 5.07213 21.4459 7.59813 21.4459C15.0421 21.4459 21.0981 15.3899 21.0981 7.94594C21.0981 5.26094 20.3111 2.66693 18.8231 0.443935C18.5151 -0.015065 17.8931 -0.138065 17.4361 0.168935C16.9771 0.476935 16.8541 1.09794 17.1611 1.55594C18.4281 3.44894 19.0981 5.65794 19.0981 7.94594C19.0981 14.2879 13.9391 19.4459 7.59813 19.4459Z" transform="translate(22.9409 17.0543)" fill="#807F7F" fill-opacity="0.95"/>
<path d="M13.501 2C15.566 2 17.59 2.553 19.356 3.6C19.83 3.881 20.444 3.725 20.726 3.249C21.007 2.774 20.851 2.161 20.375 1.879C18.301 0.65 15.924 1.67847e-07 13.5 1.67847e-07C6.056 1.67847e-07 1.06812e-07 6.056 1.06812e-07 13.5C1.06812e-07 15.584 0.462001 17.583 1.374 19.441C1.548 19.795 1.903 20.001 2.273 20.001C2.42 20.001 2.571 19.968 2.712 19.899C3.208 19.655 3.413 19.056 3.17 18.561C2.394 16.979 2 15.277 2 13.501C2.001 7.159 7.16 2 13.501 2Z" transform="translate(17.0381 11.5002)" fill="#807F7F" fill-opacity="0.95"/>
<path d="M48.2072 0.29325C47.8162 -0.0977501 47.1842 -0.0977501 46.7933 0.29325L0.29325 46.7933C-0.0977502 47.1842 -0.0977502 47.8162 0.29325 48.2072C0.48825 48.4022 0.74425 48.5002 1.00025 48.5002C1.25625 48.5002 1.51225 48.4022 1.70725 48.2072L48.2072 1.70725C48.5982 1.31725 48.5982 0.68425 48.2072 0.29325Z" transform="translate(6.41382)" fill="#807F7F" fill-opacity="0.95"/>
</svg>
